# Blender3D v248 OBJ File: lighthouse2.blend
# www.blender3d.org
v 0.880322 1.190636 -1.035654
v 0.880322 0.402577 -1.076694
v 1.436518 0.402576 -1.076694
v 1.436518 1.190636 -1.035654
v 1.436518 0.402793 -1.080856
v 1.436518 1.190853 -1.039817
v 0.880322 0.402794 -1.080856
v 0.880322 1.190853 -1.039816
vn -0.000000 0.052006 -0.998647
vn 1.000000 -0.000000 -0.000000
vn -0.000001 -0.998647 -0.052007
vn -0.000001 -0.998647 -0.052006
vn -1.000000 0.000000 0.000000
vn 0.000000 0.998647 0.052000
vn 0.000000 0.998646 0.052027
vn 0.000000 -0.052006 0.998647
usemtl Material.003
s off
f 6//1 5//1 8//1
f 5//1 7//1 8//1
f 6//2 4//2 3//2
f 6//2 3//2 5//2
f 5//3 3//3 2//3
f 5//4 2//4 7//4
f 1//5 8//5 7//5
f 1//5 7//5 2//5
f 8//6 1//6 4//6
f 8//7 4//7 6//7
f 1//8 2//8 3//8
f 1//8 3//8 4//8
