# Blender3D v248 OBJ File: 
# www.blender3d.org
v -1.446007 1.239491 -1.446007
v 1.446007 1.239491 -1.446007
v 1.446007 1.239491 1.446007
v -1.446008 1.239491 1.446007
v -1.446007 0.069626 -1.446008
v 1.446008 0.069626 -1.446006
v 1.446007 0.069626 1.446008
v -1.446007 0.069626 1.446007
v 1.327335 1.239491 1.327335
v -1.327335 1.239491 1.327334
v 1.327335 1.239491 -1.327335
v -1.327335 1.239491 -1.327335
v 1.327335 0.133246 -1.327335
v -1.327335 0.133246 -1.327335
v -1.327335 0.133246 1.327334
v 1.327335 0.133246 1.327335
v -1.446008 1.239491 0.332801
v 1.446007 1.239491 0.332801
v -1.446007 0.069626 0.332801
v 1.446007 0.069626 0.332801
v 1.327335 1.239491 0.332801
v -1.327335 1.239491 0.332801
v -1.327335 0.133246 0.332801
v 1.327335 0.133246 0.332801
v -0.072300 1.239491 -1.446007
v -0.072301 1.239491 1.446007
v -0.072299 0.069626 -1.446007
v -0.072301 0.069626 1.446007
v -0.066367 1.239491 1.327335
v -0.066367 0.133246 -1.327335
v -0.066367 0.133246 1.327335
v -0.072300 0.069626 0.332801
v -0.066367 0.133246 0.332801
v 0.064347 1.239491 -1.446007
v 0.064347 1.239491 1.446007
v 0.064348 0.069626 -1.446007
v 0.064347 0.069626 1.446007
v 0.059066 1.239491 1.327335
v 0.059066 0.133246 -1.327335
v 0.059066 0.133246 1.327335
v 0.064347 0.069626 0.332801
v 0.059066 0.133246 0.332801
v 0.059066 1.238817 -1.327335
v 0.059066 1.238817 0.318560
v -0.066367 1.238817 0.318560
v -0.066367 1.238817 -1.327335
v -0.066367 0.518019 -0.754513
v -0.066367 0.518019 -0.254262
v 0.059066 0.518019 -0.754513
v 0.059066 0.518019 -0.254262
v 0.059066 0.854044 -0.754513
v 0.059066 0.854044 -0.254262
v -0.066367 0.854044 -0.254262
v -0.066367 0.854044 -0.754513
v -1.446008 1.239491 0.436468
v 1.446007 1.239491 0.436468
v -1.446007 0.069626 0.436468
v 1.446007 0.069626 0.436468
v 1.327335 1.239491 0.436468
v -1.327335 1.239491 0.436468
v -1.327335 0.133246 0.436468
v 1.327335 0.133246 0.436468
v -0.072300 0.069626 0.436468
v -0.066367 0.133246 0.436468
v 0.064347 0.069626 0.436468
v 0.059066 0.133246 0.436468
v -1.327335 1.144190 1.327334
v -0.066367 1.144190 1.327335
v -1.327335 1.144190 0.436468
v -0.066367 1.524176 0.443355
v -0.066367 1.428875 0.443355
v -1.446007 1.239491 -1.446007
v -1.446007 1.239491 -1.446007
v -0.072300 1.239491 -1.446007
v 0.064347 1.239491 -1.446007
v 1.446007 1.239491 -1.446007
v 1.446007 1.239491 -1.446007
v 1.446008 0.069626 -1.446006
v 1.446008 0.069626 -1.446006
v 0.064348 0.069626 -1.446007
v -0.072299 0.069626 -1.446007
v -1.446007 0.069626 -1.446008
v -1.446007 0.069626 -1.446008
v -1.446007 0.069626 0.332801
v -1.446007 0.069626 0.436468
v -1.446007 0.069626 1.446007
v -1.446007 0.069626 1.446007
v -1.446008 1.239491 1.446007
v -1.446008 1.239491 1.446007
v -0.072301 1.239491 1.446007
v 0.064347 1.239491 1.446007
v 1.446007 1.239491 1.446007
v 1.446007 1.239491 1.446007
v 1.446007 0.069626 1.446008
v 1.446007 0.069626 1.446008
v 0.064347 0.069626 1.446007
v -0.072301 0.069626 1.446007
v 1.446007 0.069626 0.436468
v 1.446007 0.069626 0.332801
v 1.446007 1.239491 0.436468
v 1.446007 1.239491 0.332801
v -1.446008 1.239491 0.436468
v -1.446008 1.239491 0.332801
v 1.327335 1.239491 -1.327335
v 1.327335 1.239491 -1.327335
v 0.059066 1.238817 -1.327335
v 0.059066 1.238817 -1.327335
v 0.059066 1.238817 -1.327335
v -0.066367 1.238817 -1.327335
v -0.066367 1.238817 -1.327335
v -0.066367 1.238817 -1.327335
v -0.066367 1.238817 -1.327335
v 0.059066 1.238817 -1.327335
v -1.327335 1.239491 -1.327335
v -1.327335 1.239491 -1.327335
v -1.327335 1.239491 0.332801
v -1.327335 1.239491 0.436468
v -1.327335 1.239491 0.436468
v -0.066367 1.524176 0.443355
v -0.066367 1.524176 0.443355
v -0.066367 1.239491 1.327335
v -0.066367 1.239491 1.327335
v -0.066367 1.144190 1.327335
v -0.066367 1.144190 1.327335
v -0.066367 1.428875 0.443355
v -0.066367 1.428875 0.443355
v -1.327335 1.144190 0.436468
v -1.327335 1.144190 0.436468
v -1.327335 1.144190 1.327334
v 0.059066 1.239491 1.327335
v 1.327335 1.239491 1.327335
v 1.327335 1.239491 1.327335
v 1.327335 1.239491 0.436468
v 1.327335 1.239491 0.332801
v 1.327335 0.133246 1.327335
v 1.327335 0.133246 1.327335
v 0.059066 0.133246 1.327335
v -0.066367 0.133246 1.327335
v -1.327335 0.133246 1.327334
v -1.327335 0.133246 1.327334
v -1.327335 0.133246 0.436468
v -1.327335 0.133246 0.332801
v -1.327335 0.133246 -1.327335
v -1.327335 0.133246 -1.327335
v -0.066367 0.133246 -1.327335
v -0.066367 0.133246 -1.327335
v -0.066367 0.133246 0.332801
v -0.066367 0.133246 0.332801
v 0.059066 0.133246 0.332801
v 0.059066 0.133246 0.332801
v 0.059066 1.238817 0.318560
v 0.059066 0.133246 -1.327335
v -0.066367 1.238817 0.318560
v -1.327335 1.144190 1.327334
v 1.327335 0.133246 0.436468
v 1.327335 0.133246 0.332801
v 1.327335 0.133246 -1.327335
v 1.327335 0.133246 -1.327335
v 0.059066 0.133246 -1.327335
v -0.066367 0.133246 -1.327335
v 0.059066 0.133246 -1.327335
v 0.059066 1.238817 0.318560
v -0.066367 1.238817 0.318560
v -0.066367 0.518019 -0.754513
v -0.066367 0.518019 -0.754513
v -0.066367 0.854044 -0.754513
v -0.066367 0.854044 -0.754513
v -0.066367 0.854044 -0.254262
v -0.066367 0.854044 -0.254262
v -0.066367 0.518019 -0.254262
v -0.066367 0.518019 -0.254262
v 0.059066 0.518019 -0.254262
v 0.059066 0.518019 -0.254262
v 0.059066 0.518019 -0.754513
v 0.059066 0.854044 -0.254262
v 0.059066 0.854044 -0.254262
v 0.059066 0.854044 -0.754513
v 0.059066 0.518019 -0.754513
v 0.059066 0.854044 -0.754513
vn 0.000000 0.000000 -1.000000
vn 1.000000 0.000000 0.000000
vn 0.000000 1.000000 0.000000
vn -0.100986 0.984558 0.142918
vn -0.211646 0.930265 0.299570
vn 0.107700 -0.982391 -0.152470
vn 0.000000 -1.000000 0.000000
vn 0.211646 -0.930265 -0.299570
vn 0.005432 0.000000 -0.999969
vn -1.000000 0.000000 0.000000
vn 0.000000 0.000000 1.000000
vn 0.000122 0.999969 0.001587
vn -0.000122 0.999969 0.001587
vn 0.000000 0.012879 0.999908
vn -0.000031 0.999969 0.003632
vn -0.000244 0.999969 0.005646
vn 0.000061 0.999969 0.002869
vn 0.000153 0.999969 0.005646
usemtl Material
s 1
f 124//1 121//1 130//1
f 118//2 128//2 116//2
f 10//3 122//4 60//4
f 122//4 120//5 60//4
f 123//6 129//7 127//6
f 123//6 127//6 125//8
f 117//9 119//9 126//9
f 117//9 126//9 69//9
f 29//2 68//2 71//2
f 29//2 71//2 70//2
f 116//2 128//2 23//2
f 128//2 141//2 23//2
f 130//1 137//1 124//1
f 137//1 138//1 124//1
f 141//2 128//2 154//2
f 141//2 154//2 139//2
f 124//1 138//1 140//1
f 124//1 140//1 67//1
f 66//3 150//3 148//3
f 66//3 148//3 64//3
f 40//3 66//3 64//3
f 40//3 64//3 31//3
f 155//3 156//3 150//3
f 155//3 150//3 66//3
f 135//3 155//3 66//3
f 135//3 66//3 40//3
f 65//7 41//7 98//7
f 41//7 99//7 98//7
f 96//7 65//7 94//7
f 65//7 98//7 94//7
f 63//7 32//7 65//7
f 32//7 41//7 65//7
f 97//7 63//7 65//7
f 97//7 65//7 96//7
f 64//3 148//3 142//3
f 64//3 142//3 61//3
f 31//3 64//3 61//3
f 31//3 61//3 15//3
f 85//7 84//7 63//7
f 84//7 32//7 63//7
f 86//7 85//7 63//7
f 86//7 63//7 97//7
f 62//10 136//10 131//10
f 62//10 131//10 133//10
f 24//10 62//10 133//10
f 24//10 133//10 134//10
f 60//4 22//3 103//3
f 60//4 103//3 102//3
f 10//3 60//4 102//3
f 10//3 102//3 88//3
f 59//3 9//3 100//3
f 9//3 92//3 100//3
f 21//3 59//3 100//3
f 21//3 100//3 101//3
f 57//10 87//10 89//10
f 57//10 89//10 55//10
f 19//10 57//10 55//10
f 19//10 55//10 17//10
f 56//2 93//2 58//2
f 93//2 95//2 58//2
f 18//2 56//2 58//2
f 18//2 58//2 20//2
f 177//7 176//7 168//7
f 177//7 168//7 166//7
f 170//1 169//1 175//1
f 170//1 175//1 172//1
f 165//11 178//11 179//11
f 165//11 179//11 167//11
f 164//3 171//3 173//3
f 164//3 173//3 174//3
f 149//2 50//2 151//2
f 50//2 52//2 151//2
f 106//2 51//2 49//2
f 106//2 49//2 152//2
f 153//10 53//10 48//10
f 153//10 48//10 147//10
f 145//10 47//10 54//10
f 145//10 54//10 109//10
f 109//10 54//10 53//10
f 109//10 53//10 153//10
f 151//2 52//2 51//2
f 151//2 51//2 106//2
f 152//2 49//2 50//2
f 152//2 50//2 149//2
f 147//10 48//10 145//10
f 48//10 47//10 145//10
f 163//3 162//3 113//3
f 163//3 113//3 112//3
f 150//3 156//3 159//3
f 156//3 157//3 159//3
f 99//7 41//7 80//7
f 99//7 80//7 78//7
f 41//7 32//7 81//7
f 41//7 81//7 80//7
f 142//3 148//3 143//3
f 148//3 146//3 143//3
f 32//7 84//7 82//7
f 32//7 82//7 81//7
f 104//10 13//10 24//10
f 104//10 24//10 134//10
f 116//2 23//2 14//2
f 116//2 14//2 114//2
f 12//12 73//3 103//3
f 12//12 103//3 22//3
f 76//3 11//13 101//3
f 11//13 21//3 101//3
f 72//10 83//10 19//10
f 72//10 19//10 17//10
f 79//2 77//2 18//2
f 79//2 18//2 20//2
f 160//11 161//11 107//11
f 160//11 107//11 110//11
f 42//14 44//14 45//14
f 42//14 45//14 33//14
f 132//1 16//1 137//1
f 132//1 137//1 130//1
f 108//11 39//11 158//11
f 108//11 158//11 105//11
f 75//15 43//16 11//13
f 75//15 11//13 76//3
f 74//17 46//18 75//15
f 46//18 43//16 75//15
f 91//3 38//3 122//4
f 91//3 122//4 90//3
f 92//3 9//3 91//3
f 9//3 38//3 91//3
f 37//11 35//11 26//11
f 37//11 26//11 28//11
f 7//11 3//11 35//11
f 7//11 35//11 37//11
f 36//1 34//1 2//1
f 36//1 2//1 6//1
f 27//1 25//1 34//1
f 27//1 34//1 36//1
f 115//11 144//11 111//11
f 144//11 30//11 111//11
f 73//3 12//12 74//17
f 12//12 46//18 74//17
f 90//3 122//4 10//3
f 90//3 10//3 88//3
f 28//11 26//11 8//11
f 26//11 4//11 8//11
f 5//1 1//1 25//1
f 5//1 25//1 27//1
